<svg id="Calque_1" data-name="Calque 1" xmlns="http://www.w3.org/2000/svg" viewBox="0 0 142.44 26.07"><defs><style>.cls-1{fill:#fff;}</style></defs><title>carole-millot</title><path class="cls-1" d="M19.92,4.55c.55.42.49.84.3,1.51A10.39,10.39,0,0,1,19,8.8c-.13.09-.45,0-.35-.28,2.18-3.83-5.59-5-10-3.22C1,8.42.27,21.61,7,24.75c3.71,1.72,8.43.57,9.94-5a.22.22,0,0,1,.42.07c-.16.86-1.32,5-2.13,5.32-3.86,1.37-9.77,1.44-12.78-1.36C-1.89,19.71-.88,8.4,8.7,4.55,12.38,3.08,18.12,3.19,19.92,4.55Z"/><path class="cls-1" d="M28.62,23.82a.18.18,0,0,1,.07.21c-2.21,3.19-5,2.57-3.68-1.86-1.4,2.23-4.36,5.31-5.67,3.08C16.9,21.13,24.08,15,27.22,17.66c.43-.31,2-.9,2-.42-1.8,2.19-3.89,8-1.92,7.58C27.93,24.68,28.36,23.65,28.62,23.82Zm-2.14-5.18c-.61-2-5.63-1.46-5.63,4.41a2.38,2.38,0,0,0,.26,1.22C22.25,26.26,25.5,20.88,26.48,18.64Z"/><path class="cls-1" d="M33.9,19.27c-.07.44-.16.9-.28,1.36,2.33-5.59,6-3.68,3.75-1a.16.16,0,0,1-.21-.14c0-.78-1.66-1.15-3,1.07-2.38,4-.79,5-3.09,5.42-1.41.27-.54-.16.45-3.69.2-.71,1.2-4.31.46-4.31-.55,0-1.09.6-1.4,1.05-.2.15-.41,0-.32-.21,1.1-1.46,3-2.21,3.54-1.48A5,5,0,0,1,33.9,19.27Z"/><path class="cls-1" d="M45.35,19.51C45.35,23,42.2,26,40.13,26c-3.93,0-2.63-6,.84-8.33C42.94,16.38,45.35,17.14,45.35,19.51ZM43.6,20.67c0-1.2-.45-2.45-1.65-2.45-2.71,0-3,4.87-2.08,6.11C40.93,25.82,43.6,24.71,43.6,20.67Z"/><path class="cls-1" d="M62.67,3.1c-.1.1-.27-.05-.31-.18.12-.72-.71-1-1.44-1-9,0-16.19,29.82-9.87,21.39.15-.1.29.06.25.24-2.49,3.73-7.53,4.75-2-8.24,1.92-4.51,5.43-10.84,9.26-13.95C62.11-1.49,64.07.62,62.67,3.1Z"/><path class="cls-1" d="M59.24,18.81q0,2-5.29,2.73c-.18,1.84-.17,3.33,1.68,3.33a3.28,3.28,0,0,0,2.49-1.37c.2-.09.29.14.24.32A5.32,5.32,0,0,1,54.3,26c-4.88,0-1.16-9,2.84-9A1.93,1.93,0,0,1,59.24,18.81ZM54,21.05c3.45-.35,3.74-1.82,3-2.71S54.47,17.74,54,21.05Z"/><path class="cls-1" d="M111.53,3c.25,0,.35.35.21.52-10.29,10.09-8.38,26.94-3,18.94a.21.21,0,0,1,.31.24c-.9,1.39-2.68,3.29-4.27,3.29-5,0-2.14-13.55,3.22-19.88C97.74,13.82,92.57,24.92,92.14,25.31s-1.91,1-1.75.47A56.21,56.21,0,0,1,95.22,8.31C89.88,16.32,82.63,26,73.06,26c-8.24,0-8.81-9.1-3-11.27.21-.1.26.19.18.32-3.56,2.3-2.42,9.69,4,9.69,9,0,16.42-10.41,21.49-18C77.22.4,80.07,11.08,79,10.76c-.08,0-.13-.09-.16-.21,1-9.11,10.77-7.9,19.5-5l.35-.11a.27.27,0,0,1,.14.42c-2.76,1.58-5.3,12.8-6,17.05C97.36,14.63,105.28,6.67,111.53,3Z"/><path class="cls-1" d="M110.83,19.46a.28.28,0,0,1,0-.23,19.4,19.4,0,0,1,3.61-2.17c.19,0,.28.11.28.32-1,1.73-2.42,5.06-2.42,6.82,0,.89.72.85,1.25.37.88-.79.84-1,1-.84a.2.2,0,0,1,0,.26c-2.48,3-4.2,2.23-4.2.88a15.15,15.15,0,0,1,2.28-6.48C111.07,19.25,111,19.73,110.83,19.46Zm3.92-3.9c-.27.27-.69-.61-.39-1.12s2.51-2.77,2.87-2.47c.07.06.1.11.07.16a10.06,10.06,0,0,0-1.4,1.59A17.84,17.84,0,0,0,114.75,15.56Z"/><path class="cls-1" d="M132,3.1c-.1.1-.28-.05-.32-.18.12-.72-.7-1-1.43-1-9.06,0-16.16,29.77-9.87,21.39.14-.1.29.06.24.24C119,26,116,27.1,116,24.66c0-5.56,6.21-18.7,11.83-23.28C131.12-1.25,133.55.3,132,3.1Z"/><path class="cls-1" d="M137.22,3.1c-.1.1-.28-.05-.32-.18.12-.72-.7-1-1.43-1-9,0-16.16,29.77-9.87,21.39.14-.1.29.06.24.24-2.17,3.26-7.87,5.58-2-8.24,1.93-4.52,5.43-10.84,9.25-13.95C136.56-1.41,138.69.49,137.22,3.1Z"/><path class="cls-1" d="M133.58,17.8c1.34,1.66.24,4.6-1.28,6.32-4,4.54-8.16.41-4.16-4.85C130.1,16.68,132.61,16.61,133.58,17.8Zm-1.91,6a5.52,5.52,0,0,0,.33-4.88c-.82-1.37-3.74-1.08-3.74,3.57C128.26,25.38,130.48,25.59,131.67,23.8Z"/><path class="cls-1" d="M142.29,17.24c.12.05.17.11.14.19-.08.3-.42.1-3,.33-3.18,7.79-.8,8.6,1.33,5.6.13-.08.29,0,.24.25-.67,1.1-2,2.41-3.29,2.41-2.35,0-1.91-2.18-1.29-4.44a32.18,32.18,0,0,1,1.26-3.64,14.69,14.69,0,0,0-1.68.28c-.28,0,0-.32.23-.47a2.88,2.88,0,0,1,1.69-.44,31.4,31.4,0,0,1,1.93-3.68c.51-.59,2.16-1.1,2.06-.73a29.18,29.18,0,0,0-2.27,4.37C140.53,17.23,141,17.24,142.29,17.24Z"/></svg>