<svg xmlns="http://www.w3.org/2000/svg" viewBox="0 0 100 100"><path d="M50 15L15 50l35 35 35-35-35-35zm-.8 67L18 50.8h31.3V82zm0-32.8H18L49.2 18v31.2zM50.8 18L82 49.2H50.8V18zm0 64V50.8H82L50.8 82zm41.9 7.4h-1.6v2h-2V93h.9l-6.4 6.4H99V83.9l-6.4 6.4v-.9zm4.8-1.7v10.1h-10l4.8-4.8h.5v-.5l4.7-4.8zm-57.6 3.7h3.3V93h-3.3v-1.6zm-6.7 0h3.3V93h-3.3v-1.6zm33.3 0h3.3V93h-3.3v-1.6zm-52.6 0h2.7V93h-2.7v-1.6zm6 0h3.3V93h-3.3v-1.6zm39.9 0h3.3V93h-3.3v-1.6zm13.3 0h3.3V93h-3.3v-1.6zm-19.9 0h3.3V93h-3.3v-1.6zm26.6 0h3.3V93h-3.3v-1.6zm-53.2 0h3.3V93h-3.3v-1.6zm19.9 0h3.3V93h-3.3v-1.6zM10.9 93v-1.6h-2v-2H7.3v.9L.9 83.9v15.4h15.4L9.9 93h1zm1.6 4.8h-10V87.7l4.8 4.8v.5h.5l4.7 4.8zm-5.2-58h1.6v3.3H7.3v-3.3zm0 26.8h1.6v3.3H7.3v-3.3zm0 13.4h1.6v3.3H7.3V80zm0-20.1h1.6v3.3H7.3v-3.3zm0 13.4h1.6v3.3H7.3v-3.3zm0-59.6h1.6v2.7H7.3v-2.7zm0 39.5h1.6v3.3H7.3v-3.3zm0-26.8h1.6v3.3H7.3v-3.3zm0 6.7h1.6v3.3H7.3v-3.3zm0 13.4h1.6v3.3H7.3v-3.3zm0-26.8h1.6V23H7.3v-3.3zm0-9.1h1.6v-2h2V7h-1L16.3.6H.9V16l6.4-6.4v1zm-4.8 1.7V2.2h10.1L7.7 7h-.4v.5l-4.8 4.8zM83.4 7h2.7v1.6h-2.7V7zM43.5 7h3.3v1.6h-3.3V7zm-6.7 0h3.3v1.6h-3.3V7zm-6.6 0h3.3v1.6h-3.3V7zM16.9 7h3.3v1.6h-3.3V7zm6.6 0h3.3v1.6h-3.3V7zm26.6 0h3.3v1.6h-3.3V7zm6.7 0h3.3v1.6h-3.3V7zm6.6 0h3.3v1.6h-3.3V7zm13.4 0h3.3v1.6h-3.3V7zm-6.7 0h3.3v1.6h-3.3V7zm21.1 63.2h1.6v3.3h-1.6v-3.3zm0-26.7h1.6v3.3h-1.6v-3.3zm0 13.3h1.6v3.3h-1.6v-3.3zm0-6.7h1.6v3.3h-1.6v-3.3zm0 26.8h1.6v3.3h-1.6v-3.3zm0-13.4h1.6v3.3h-1.6v-3.3zm0 20.1h1.6v2.7h-1.6v-2.7zm0-60.2h1.6v3.3h-1.6v-3.3zm0 6.7h1.6v3.3h-1.6v-3.3zm0 6.7h1.6v3.3h-1.6v-3.3zm0-20.1h1.6V20h-1.6v-3.3zM90.1 7h-.9v1.6h2v2h1.6v-.9l6.4 6.4V.7H83.7L90.1 7zm7.4 5.3l-4.8-4.8V7h-.5l-4.8-4.8h10.1v10.1z"/></svg>